<svg width="32" height="32" viewBox="0 0 32 32" fill="none" xmlns="http://www.w3.org/2000/svg">
<path d="M20.0003 10.667H18.2003C17.483 10.667 17.3337 10.9617 17.3337 11.7043V13.3337H20.0003L19.7217 16.0003H17.3337V25.3337H13.3337V16.0003H10.667V13.3337H13.3337V10.2563C13.3337 7.89766 14.575 6.66699 17.3723 6.66699H20.0003V10.667Z" fill="white"/>
<path d="M16 0C7.164 0 0 7.164 0 16C0 24.836 7.164 32 16 32C24.836 32 32 24.836 32 16C32 7.164 24.836 0 16 0ZM20 10.6667H18.2C17.4827 10.6667 17.3333 10.9613 17.3333 11.704V13.3333H20L19.7213 16H17.3333V25.3333H13.3333V16H10.6667V13.3333H13.3333V10.256C13.3333 7.89733 14.5747 6.66667 17.372 6.66667H20V10.6667Z" fill="#FF1E1E"/>
</svg>
